# xmcd CD database file
#
# Track frame offsets:
#	150
#	15272
#	32937
#	48062
#
# Disc length: 875 seconds
#
# Revision: 2
# Processed by: cddbd v1.5.2PL0 Copyright (c) Steve Scherf et al.
# Submitted via: CDex 1.70beta3
#
DISCID=21036904
DTITLE=UNDER17 - マジキュー応援歌　がんばれ!たまちゃん
DYEAR=1900
DGENRE=Soundtrack
TTITLE0=がんばれ!たまちゃん
TTITLE1=Magi-Cu!!
TTITLE2=がんばれ!たまちゃん(Off Vocal Ver.)
TTITLE3=Magi-Cu!!(off Vocal Ver.)
EXTD=
EXTT0=
EXTT1=
EXTT2=
EXTT3=
PLAYORDER=
